<?xml version="1.0" encoding="UTF-8"?>
<svg version="1.1" xmlns="http://www.w3.org/2000/svg" width="256" height="256">
<path d="M0 0 C10.75446629 11.00457016 16.72454762 23.93595266 16.9375 39.375 C16.65918965 59.86292369 4.48760923 76.26497017 -5.57421875 93.37890625 C-9.33370964 99.77466753 -13.04706789 106.19636557 -16.75 112.625 C-17.37213379 113.70450928 -17.99426758 114.78401855 -18.63525391 115.89624023 C-19.89747833 118.0866475 -21.15952237 120.27715872 -22.42138672 122.46777344 C-26.16901605 128.97217941 -29.92154961 135.47375795 -33.67407227 141.9753418 C-36.87782462 147.52686292 -40.07834577 153.08020797 -43.2734375 158.63671875 C-46.4017339 164.0766444 -49.54357628 169.50857607 -52.69091797 174.9375 C-54.13355348 177.43963206 -55.55668838 179.95147379 -56.97265625 182.46875 C-62.54848818 192.26904823 -68.50020587 199.62810638 -79.3125 203.75 C-82.27331096 204.32123157 -85.11470749 204.41941203 -88.125 204.375 C-88.91181152 204.365896 -89.69862305 204.35679199 -90.50927734 204.34741211 C-99.96991177 203.97532102 -106.23947358 200.17980844 -112.8125 193.5 C-118.31577054 186.75623815 -120.00159213 179.29363185 -119.63916016 170.67749023 C-118.57039552 161.09934617 -113.26931889 152.68332907 -108.4375 144.5625 C-107.42890365 142.84120155 -106.42031168 141.11990051 -105.41204834 139.39840698 C-104.38368856 137.64602411 -103.35119434 135.89614402 -102.31738281 134.14697266 C-99.87020828 130.00060315 -97.44438801 125.84204179 -95.02075195 121.68188477 C-93.87731699 119.71939934 -92.73261242 117.75765313 -91.58666992 115.79663086 C-87.92000771 109.52114595 -84.27872052 103.23157469 -80.65380859 96.93188477 C-78.15938989 92.59911978 -75.65578274 88.27168777 -73.15283203 83.94384766 C-71.30864384 80.74330774 -69.48018223 77.53411741 -67.65234375 74.32421875 C-66.49794759 72.3199946 -65.34302414 70.31607404 -64.1875 68.3125 C-63.66728271 67.38872559 -63.14706543 66.46495117 -62.61108398 65.51318359 C-58.00863489 57.58996105 -58.00863489 57.58996105 -53.3125 55.75 C-50.54299296 55.12056658 -48.0873545 55.13336567 -45.3125 55.75 C-41.52842466 58.80946517 -39.51681046 60.96795878 -38.9609375 65.81640625 C-39.42152059 70.96981928 -41.3525873 74.27934805 -43.9375 78.6875 C-44.42895508 79.5522998 -44.92041016 80.41709961 -45.42675781 81.30810547 C-47.03859239 84.13208389 -48.67331943 86.94181734 -50.3125 89.75 C-51.41938961 91.66008742 -52.52615945 93.57024426 -53.6328125 95.48046875 C-55.96064316 99.48733553 -58.29945973 103.48757675 -60.64453125 107.484375 C-65.00417819 114.91943179 -69.30961965 122.38541591 -73.609375 129.85522461 C-76.54207949 134.94957416 -79.47855485 140.04149396 -82.43714905 145.12084961 C-83.47763224 146.90749551 -84.51651024 148.69506526 -85.55493164 150.48291016 C-86.85956694 152.72790462 -88.16718268 154.97117064 -89.47827148 157.21240234 C-93.92819136 164.73105226 -93.92819136 164.73105226 -97.3125 172.75 C-95.99740819 177.20670001 -95.20340481 179.15606346 -91.3125 181.75 C-87.88146625 182.19752614 -85.98521332 182.15023616 -82.98828125 180.3671875 C-79.13607738 176.59933846 -76.92081345 172.21558528 -74.375 167.5 C-73.21904372 165.40667007 -72.06143962 163.31424939 -70.90234375 161.22265625 C-70.30921387 160.14773926 -69.71608398 159.07282227 -69.10498047 157.96533203 C-66.28857457 152.91329367 -63.36574436 147.92528726 -60.4375 142.9375 C-53.64222014 131.33141929 -46.91659453 119.68605892 -40.20361328 108.03222656 C-37.69826503 103.68393042 -35.19042178 99.33707659 -32.68212891 94.99047852 C-31.44301522 92.84282169 -30.20440236 90.69487582 -28.96630859 88.54663086 C-26.04105998 83.47196043 -23.11147413 78.3999409 -20.16659546 73.3366394 C-18.7770137 70.94684332 -17.38987828 68.55563164 -16.00292969 66.16430664 C-15.02386747 64.47859411 -14.04127394 62.79493413 -13.05859375 61.11132812 C-12.465625 60.08845703 -11.87265625 59.06558594 -11.26171875 58.01171875 C-10.73924561 57.11412842 -10.21677246 56.21653809 -9.6784668 55.29174805 C-5.02675432 46.63598781 -4.52786465 39.13883156 -7.16796875 29.6875 C-9.86429799 22.76722836 -14.67727101 17.13266576 -21.3125 13.75 C-29.24217196 10.40160495 -36.55086603 9.9109879 -44.796875 12.54296875 C-54.50879413 16.5352845 -58.75883319 22.4958013 -63.75 31.4375 C-64.35271729 32.49404785 -64.95543457 33.5505957 -65.57641602 34.63916016 C-66.8522991 36.87619423 -68.1236075 39.11584286 -69.390625 41.35791016 C-71.86338033 45.72229819 -74.37424808 50.06405151 -76.88696289 54.40551758 C-78.77101945 57.66132334 -80.64992308 60.92005127 -82.52734375 64.1796875 C-86.28605381 70.70486243 -90.0489175 77.2276345 -93.8125 83.75 C-95.06251879 85.91665583 -96.31251878 88.0833225 -97.5625 90.25 C-105.0625 103.25 -105.0625 103.25 -106.93994141 106.50341797 C-108.18274396 108.65814918 -109.42461465 110.81341815 -110.66552734 112.96923828 C-113.55354024 117.98398235 -116.4496584 122.99334401 -119.38104248 127.98284912 C-120.40807558 129.73199117 -121.43201942 131.48290587 -122.45507812 133.234375 C-123.73157035 135.41761687 -125.01368938 137.59758354 -126.30273438 139.7734375 C-134.54261872 153.90415629 -139.70969284 166.85995162 -136.62890625 183.42578125 C-132.96214289 197.34731019 -125.79102336 207.98793139 -113.75 216.0625 C-101.7179994 222.82226247 -87.53346123 224.39913814 -74.3125 220.75 C-56.56443655 214.95136022 -48.21750665 203.49488436 -39.375 187.875 C-38.38265099 186.13838923 -37.39029368 184.40178313 -36.39743042 182.66546631 C-35.3741938 180.87456461 -34.35320384 179.0823964 -33.33251953 177.29003906 C-30.18244704 171.76329796 -26.99540397 166.25787331 -23.8125 160.75 C-22.56361373 158.58604619 -21.31491635 156.42198336 -20.06640625 154.2578125 C-19.44781738 153.18563477 -18.82922852 152.11345703 -18.19189453 151.00878906 C-16.30269834 147.73300434 -14.41485891 144.45644107 -12.52734375 141.1796875 C-4.67710852 127.55471794 3.19404422 113.94245155 11.15087891 100.37939453 C12.57348634 97.94509487 13.98200624 95.5032475 15.38671875 93.05859375 C16.17409955 91.70550819 16.96182929 90.35262559 17.75 89 C18.72646484 87.30617187 18.72646484 87.30617187 19.72265625 85.578125 C22.22714238 81.97325829 24.60621024 79.26675859 28.96875 78.18359375 C33.18021551 78.1910083 35.15335934 78.37165037 38.6875 80.875 C40.92339791 84.08910325 41.60790855 85.85001914 41.6875 89.75 C40.23032655 95.31223922 37.47659937 100.08217072 34.6875 105.0625 C34.19910645 105.94260742 33.71071289 106.82271484 33.20751953 107.72949219 C29.67013177 114.07326088 26.02700096 120.3501015 22.31835938 126.5949707 C19.54012892 131.27690543 16.84023773 135.9959396 14.1875 140.75 C10.37837786 147.56728788 6.44520531 154.30427882 2.47265625 161.02734375 C-0.13111201 165.43553568 -2.71461398 169.85536513 -5.29321289 174.27832031 C-6.4770578 176.30851551 -7.66245379 178.337807 -8.84936523 180.36621094 C-11.92363064 185.62498678 -14.96971989 190.89713259 -17.96875 196.19921875 C-30.30749594 217.9137442 -43.39056794 234.64129808 -67.75 242.91796875 C-87.30798399 247.83052841 -107.37294879 245.15926534 -125.0546875 235.734375 C-141.52509315 225.70204158 -153.45399943 210.48452942 -158.3125 191.75 C-163.55669278 164.73353427 -156.20107728 144.75080918 -142.25488281 121.95751953 C-139.01541015 116.60807359 -135.9205805 111.17646601 -132.8125 105.75 C-127.27388152 96.127488 -121.69175791 86.53108247 -116.08984375 76.9453125 C-112.51780392 70.82880595 -108.9856999 64.69240068 -105.484375 58.53515625 C-101.95054097 52.35094669 -98.34083137 46.20978731 -94.72875977 40.07104492 C-91.8031788 35.08552474 -88.92969869 30.0875601 -86.19921875 24.9921875 C-77.54633635 8.94836066 -68.04193946 -3.93309758 -50.3125 -10.25 C-32.20027953 -13.77239961 -14.98381552 -11.14599901 0 0 Z " fill="#FFFFFF" transform="translate(187.3125,11.25)"/>
</svg>
