<?xml version="1.0" encoding="UTF-8"?>
<svg version="1.1" xmlns="http://www.w3.org/2000/svg" width="225" height="225">
<path d="M0 0 C4.62506561 3.33872353 8.82645719 7.12222007 13 11 C13.76441406 11.68320312 14.52882812 12.36640625 15.31640625 13.0703125 C22.85169063 20.11897381 30.50232351 29.32403669 31 40 C31.49191321 60.2112165 21.42975886 72.79213646 8 87 C1.82153946 93.36712366 -4.47650159 99.61748537 -10.75390625 105.88671875 C-12.58290445 107.71639168 -14.41175428 109.54621293 -16.24046326 111.37617493 C-20.05899624 115.1961762 -23.87926755 119.01442641 -27.70092773 122.83129883 C-32.10002887 127.22495191 -36.49550587 131.62220594 -40.88913399 136.02133149 C-45.14391431 140.28121927 -49.40152731 144.53826317 -53.66032219 148.79413795 C-55.46028863 150.59344014 -57.25952035 152.39347765 -59.05798531 154.19428062 C-61.57473008 156.71358009 -64.09468427 159.2296263 -66.61547852 161.74487305 C-67.3486882 162.48010696 -68.08189789 163.21534088 -68.83732605 163.97285461 C-73.39762025 168.51468262 -78.10526937 172.82139234 -83 177 C-83.84046875 177.721875 -84.6809375 178.44375 -85.546875 179.1875 C-101.0006114 191.90121222 -117.25216941 198.53049285 -137.35546875 196.796875 C-149.50917971 194.69904872 -160.10830827 187.11296077 -169 179 C-169.70640625 178.37480469 -170.4128125 177.74960938 -171.140625 177.10546875 C-184.84586302 164.29053162 -193.08286218 147.63121845 -194.1796875 128.9375 C-194.81542212 101.8128229 -180.36535461 81.35128462 -162.52490234 62.43603516 C-157.60957737 57.31886917 -152.49342096 52.47799819 -147.09375 47.875 C-143.95710878 45.06606757 -141.03081265 42.05179706 -138.07519531 39.05566406 C-134.78634171 35.73934613 -131.37829758 32.64001013 -127.828125 29.609375 C-125.97062012 27.97413566 -124.23393991 26.26518207 -122.5 24.5 C-119.55055932 21.51079158 -116.50098909 18.70025918 -113.3046875 15.9765625 C-111.53470439 14.45857699 -109.79546945 12.90468022 -108.0703125 11.3359375 C-107.02657217 10.41085944 -105.98230236 9.48637842 -104.9375 8.5625 C-103.97714844 7.69753906 -103.01679687 6.83257812 -102.02734375 5.94140625 C-98.35007085 3.58320672 -96.29299815 3.46337523 -92 4 C-88.42367533 6.51103647 -87.21674154 8.04272488 -86.25 12.3125 C-87.87173986 20.28605432 -95.35057671 25.36080298 -101.21484375 30.53515625 C-105.98005279 34.75233283 -110.62912951 39.09479872 -115.29345703 43.42285156 C-116.92717854 44.93270005 -118.56980144 46.43219383 -120.21484375 47.9296875 C-128.32860924 55.35417967 -136.22821031 63.0109436 -144.06610107 70.72506714 C-145.25249172 71.88918068 -146.44315812 73.04895602 -147.63848877 74.20388794 C-161.98477047 88.08710083 -174.66811869 105.0283237 -175.375 125.6875 C-175.08971308 141.39506199 -167.90108046 153.47956662 -157.3828125 164.7109375 C-149.29107494 172.48431161 -140.05728303 178.04320703 -128.6875 178.5625 C-112.9963349 177.95616692 -99.33424826 168.15838265 -88.92189693 156.98490238 C-87.10836609 155.11191865 -85.23757887 153.42283801 -83.2535553 151.73374939 C-79.10259253 148.13339691 -75.19639473 144.33765622 -71.31811523 140.44750977 C-70.59667328 139.72782013 -69.87523132 139.00813049 -69.13192749 138.26663208 C-66.77164537 135.91071506 -64.41499771 133.55120174 -62.05859375 131.19140625 C-60.4054244 129.53891147 -58.7521067 127.88656508 -57.09864807 126.23435974 C-53.64332094 122.78050235 -50.18979719 119.32485457 -46.73754883 115.86791992 C-42.3273976 111.45207187 -37.91277173 107.04072888 -33.49677944 102.630723 C-30.08477894 99.22234766 -26.67517815 95.81157975 -23.26628304 92.4000988 C-21.64002803 90.77317994 -20.01303878 89.14699466 -18.38528252 87.52157784 C-16.10524697 85.24410099 -13.82847384 82.96340999 -11.55249023 80.68188477 C-10.55713509 79.68956596 -10.55713509 79.68956596 -9.54167175 78.67720032 C5.5910036 63.86121485 5.5910036 63.86121485 12.5 44.5625 C12.08363745 36.24640147 5.78055639 30.29514423 0.125 24.75 C-0.46152344 24.151875 -1.04804688 23.55375 -1.65234375 22.9375 C-6.84657668 17.77751476 -12.01045174 13.43924308 -19.6875 13.375 C-39.75402478 14.19862602 -56.21907516 35.91712651 -69.375 49.109375 C-71.11535019 50.84837486 -72.85599691 52.587078 -74.59692383 54.32550049 C-78.22070199 57.9463494 -81.84088693 61.57074182 -85.45849609 65.19775391 C-90.08608368 69.83678606 -94.72266349 74.46671074 -99.36193848 79.09405136 C-102.94810191 82.6729803 -106.52947933 86.256668 -110.10943604 89.8418045 C-111.8175396 91.5512375 -113.52711702 93.25919915 -115.23822021 94.96562958 C-117.62593516 97.34824752 -120.00711616 99.73721321 -122.38671875 102.12792969 C-123.43718132 103.17231956 -123.43718132 103.17231956 -124.50886536 104.23780823 C-133.14934059 112.87808693 -133.14934059 112.87808693 -136.3125 124.3125 C-136.26001105 128.92402889 -135.04413444 131.44850983 -132 135 C-127.91479048 138.7447754 -124.37465546 138.56687777 -119.0234375 138.3984375 C-110.96935545 137.33704684 -106.06032331 131.34040726 -100.6875 125.6953125 C-98.59833403 123.60007338 -96.50557022 121.6812282 -94.26547241 119.75888062 C-90.37533175 116.36994468 -86.69585799 112.82556662 -83.06494141 109.16259766 C-82.42325012 108.51944611 -81.78155884 107.87629456 -81.12042236 107.21365356 C-79.7432749 105.83273276 -78.36728254 104.4506592 -76.99235916 103.06752396 C-74.81765611 100.87995552 -72.639755 98.69561584 -70.46102905 96.51205444 C-65.8461909 91.88585082 -61.23532257 87.25570313 -56.625 82.625 C-51.2598971 77.23629775 -45.89318033 71.84922336 -40.52225876 66.46632004 C-38.37417029 64.31173863 -36.2291075 62.15417529 -34.08413696 59.99649048 C-32.77580208 58.68452546 -31.46732794 57.37269929 -30.15869141 56.06103516 C-29.56130157 55.458479 -28.96391174 54.85592285 -28.34841919 54.23510742 C-23.28348152 49.16951643 -23.28348152 49.16951643 -18.6875 48.5625 C-15 49 -15 49 -12 51.5625 C-9.52810614 55.81106758 -9.79566164 57.30968647 -11 62 C-13.14453125 64.6953125 -13.14453125 64.6953125 -15.8125 67.125 C-18.49497622 69.60539899 -20.94215802 71.9262335 -23.19921875 74.8046875 C-23.79347656 75.52914062 -24.38773438 76.25359375 -25 77 C-25.66 77 -26.32 77 -27 77 C-27.23894989 77.56393967 -27.47789978 78.12787933 -27.72409058 78.70890808 C-29.2776157 81.49850176 -31.15357592 83.4004914 -33.41455078 85.6574707 C-34.32955353 86.57555008 -35.24455627 87.49362946 -36.18728638 88.43952942 C-37.18978487 89.43512484 -38.19246489 90.43053749 -39.1953125 91.42578125 C-40.22740583 92.456681 -41.25912814 93.48795231 -42.29049683 94.51957703 C-44.45458267 96.68209946 -46.62198184 98.84122567 -48.79199219 100.99780273 C-51.55392928 103.74284632 -54.30933536 106.49432909 -57.06245613 109.24821186 C-59.19504683 111.38052847 -61.33025107 113.51021203 -63.46630478 115.63905907 C-64.4818237 116.65142536 -65.49676407 117.66437238 -66.5110817 118.67794228 C-71.63161827 123.79058144 -76.7683494 128.81845729 -82.2885437 133.50062561 C-85.98449662 136.73857983 -89.32856249 140.36579294 -92.7109375 143.92578125 C-101.15704291 152.58208386 -110.33582278 157.00868059 -122.5 157.4375 C-132.71745864 157.12606515 -139.44531106 153.51260455 -146.796875 146.5078125 C-152.92746697 139.5293727 -155.36301939 131.6275694 -155.2109375 122.45703125 C-153.42088481 101.60623235 -132.0572115 85.9036887 -118.23828125 72.10546875 C-116.63634432 70.50285645 -115.03455571 68.90009589 -113.4329071 67.29719543 C-110.09710925 63.95993325 -106.75953495 60.62446101 -103.4206543 57.2902832 C-99.15736829 53.03271233 -94.89861363 48.77064148 -90.64117146 44.5072279 C-87.34260668 41.20503906 -84.04165095 37.90524853 -80.7399807 34.60616493 C-79.1688839 33.03573134 -77.59851883 31.46456532 -76.02892494 29.89262962 C-73.83330881 27.69445445 -71.63447926 25.49954273 -69.43481445 23.30541992 C-68.79825424 22.66683548 -68.16169403 22.02825104 -67.50584412 21.37031555 C-49.87507721 3.82113884 -25.10534179 -15.46995829 0 0 Z " fill="#FEFEFE" transform="translate(194,17)"/>
</svg>
