<svg version="1.1" id="Layer_1" xmlns="http://www.w3.org/2000/svg" xmlns:xlink="http://www.w3.org/1999/xlink" x="0px" y="0px"
	 width="100%" viewBox="0 0 225 225" enable-background="new 0 0 225 225" xml:space="preserve">
<path fill="#010101" opacity="1.000000" stroke="none" 
	d="
M226.000000,12.000000 
	C226.000000,13.066673 226.000000,14.133346 225.653625,15.724348 
	C203.248901,76.606110 181.201721,136.967621 159.123169,197.317673 
	C154.470245,210.036102 143.608047,213.290222 132.625061,205.324844 
	C118.221352,194.878586 103.823364,184.424377 89.440910,173.948898 
	C83.579765,169.679916 77.765831,165.346100 71.832985,160.969910 
	C116.477837,116.949089 160.730545,73.314926 204.983261,29.680769 
	C204.573196,29.248943 204.163147,28.817118 203.753082,28.385292 
	C153.438293,67.966728 103.123505,107.548157 52.761997,147.166351 
	C38.329227,136.681061 23.933992,126.528564 9.941241,115.848732 
	C6.313851,113.080154 3.946258,108.660995 1.000000,105.000000 
	C1.000000,103.285606 1.000000,101.571205 1.318514,99.275085 
	C3.038513,93.641212 6.367303,90.582047 11.258574,88.818703 
	C17.790470,86.463890 24.210808,83.801270 30.696056,81.315193 
	C92.313065,57.694706 153.940659,34.101807 215.536926,10.427376 
	C219.489441,8.908232 223.057541,7.804709 226.000000,12.000000 
M206.784637,27.947588 
	C207.098801,27.422407 207.412964,26.897226 207.727127,26.372046 
	C207.526596,26.223150 207.326050,26.074255 207.125519,25.925360 
	C206.437363,26.496109 205.749191,27.066856 204.575363,28.165827 
	C205.104950,28.166142 205.634552,28.166458 206.784637,27.947588 
z"/>
<path fill="#FEFEFE" opacity="1.000000" stroke="none" 
	d="
M1.000000,105.468658 
	C3.946258,108.660995 6.313851,113.080154 9.941241,115.848732 
	C23.933992,126.528564 38.329227,136.681061 52.761997,147.166351 
	C103.123505,107.548157 153.438293,67.966728 203.753082,28.385292 
	C204.163147,28.817118 204.573196,29.248943 204.983261,29.680769 
	C160.730545,73.314926 116.477837,116.949089 71.832985,160.969910 
	C77.765831,165.346100 83.579765,169.679916 89.440910,173.948898 
	C103.823364,184.424377 118.221352,194.878586 132.625061,205.324844 
	C143.608047,213.290222 154.470245,210.036102 159.123169,197.317673 
	C181.201721,136.967621 203.248901,76.606110 225.653625,16.124338 
	C226.000000,85.944885 226.000000,155.889771 226.000000,225.917328 
	C151.114258,225.917328 76.228378,225.917328 1.000000,225.917328 
	C1.000000,185.979752 1.000000,145.958542 1.000000,105.468658 
M48.830772,195.718552 
	C49.615314,200.296844 50.177605,204.927170 51.234707,209.441635 
	C52.967873,216.843246 60.765652,220.628647 67.160301,216.752625 
	C77.017990,210.777512 86.509415,204.198181 96.547073,197.618973 
	C78.356598,184.611893 60.795109,172.054565 43.233624,159.497253 
	C42.913620,159.761490 42.593616,160.025742 42.273613,160.289978 
	C44.407658,171.816666 46.541702,183.343338 48.830772,195.718552 
z"/>
<path fill="#FEFEFE" opacity="1.000000" stroke="none" 
	d="
M226.000000,11.517044 
	C223.057541,7.804709 219.489441,8.908232 215.536926,10.427376 
	C153.940659,34.101807 92.313065,57.694706 30.696056,81.315193 
	C24.210808,83.801270 17.790470,86.463890 11.258574,88.818703 
	C6.367303,90.582047 3.038513,93.641212 1.318514,98.846680 
	C1.000000,66.378960 1.000000,33.757927 1.000000,1.068445 
	C75.999962,1.068445 150.999969,1.068445 226.000000,1.068445 
	C226.000000,4.376779 226.000000,7.705433 226.000000,11.517044 
z"/>
<path fill="#FEFEFE" opacity="1.000000" stroke="none" 
	d="
M205.061035,27.637604 
	C205.749191,27.066856 206.437363,26.496109 207.125519,25.925360 
	C207.326050,26.074255 207.526596,26.223150 207.727127,26.372046 
	C207.412964,26.897226 207.098801,27.422407 206.210022,27.901100 
	C205.443954,27.782274 205.252487,27.709940 205.061035,27.637604 
z"/>
<path fill="#FEFEFE" opacity="1.000000" stroke="none" 
	d="
M205.899780,28.010693 
	C205.634552,28.166458 205.104950,28.166142 204.818207,27.901714 
	C205.252487,27.709940 205.443954,27.782274 205.899780,28.010693 
z"/>
<path fill="#030303" opacity="1.000000" stroke="none" 
	d="
M48.753262,195.294281 
	C46.541702,183.343338 44.407658,171.816666 42.273613,160.289978 
	C42.593616,160.025742 42.913620,159.761490 43.233624,159.497253 
	C60.795109,172.054565 78.356598,184.611893 96.547073,197.618973 
	C86.509415,204.198181 77.017990,210.777512 67.160301,216.752625 
	C60.765652,220.628647 52.967873,216.843246 51.234707,209.441635 
	C50.177605,204.927170 49.615314,200.296844 48.753262,195.294281 
z"/>
</svg>